<svg preserveAspectRatio="none" width="100%" height="100%" overflow="visible" style="display: block;" viewBox="0 0 130 21" fill="none" xmlns="http://www.w3.org/2000/svg">
<g id="Frame 1">
<path id="Vector" d="M12.696 5.65393L9.03086 6.40136C8.76 4.97507 7.584 4.27565 6.384 4.27565C5.184 4.27565 4.34743 4.9545 4.34743 5.81507C4.34743 6.42536 4.61829 6.87793 5.568 7.08365L8.712 7.7865C11.3383 8.37622 12.8743 9.79907 12.8743 12.1991C12.8743 15.4356 10.0011 17.1088 6.63086 17.1088C3.26057 17.1088 0.408 15.4802 0 12.5145L3.84686 11.7671C4.23086 13.3271 5.31771 14.0059 6.83314 14.0059C8.23543 14.0059 9.072 13.3716 9.072 12.4459C9.072 11.7671 8.75657 11.3385 7.66972 11.1122L4.50171 10.4334C2.33143 9.93622 0.428571 8.80479 0.428571 6.04479C0.428571 3.10307 2.87314 1.27222 6.42514 1.27222C9.72686 1.27222 12.1269 2.90079 12.6926 5.66079L12.696 5.65393Z" fill="var(--fill-0, #213142)"/>
<path id="Vector_2" d="M27.1022 11.0853C27.1022 14.6818 24.5685 17.1024 21.5582 17.1024C20.0874 17.1024 18.9114 16.6498 18.0302 15.8578V20.6098H14.4097V5.40413H18.0302V6.30927C18.9114 5.51727 20.0908 5.0647 21.5582 5.0647C24.5685 5.0647 27.1022 7.50927 27.1022 11.0818V11.0853ZM23.5502 11.0853C23.5502 9.34355 22.3948 8.14355 20.8108 8.14355C19.34 8.14355 18.0268 9.34355 18.0268 11.0853C18.0268 12.827 19.34 14.027 20.8108 14.027C22.3948 14.027 23.5502 12.851 23.5502 11.0853Z" fill="var(--fill-0, #213142)"/>
<path id="Vector_3" d="M40.8107 11.0856C40.8107 14.6822 37.9581 17.0822 34.5878 17.0822C31.2175 17.0822 28.2964 14.6822 28.2964 11.0856C28.2964 7.48904 31.149 5.11304 34.5878 5.11304C38.0267 5.11304 40.8107 7.51304 40.8107 11.0856ZM37.3272 11.0856C37.3272 9.3199 35.9935 8.14389 34.5878 8.14389C33.1821 8.14389 31.7832 9.3199 31.7832 11.0856C31.7832 12.8513 33.117 14.0273 34.5878 14.0273C36.0587 14.0273 37.3272 12.8719 37.3272 11.0856Z" fill="var(--fill-0, #213142)"/>
<path id="Vector_4" d="M50.3652 5.40423V8.61681H49.7103C47.1766 8.61681 45.7949 10.2728 45.7949 13.2145V16.7665H42.1743V5.40766H45.7949V7.58138C46.6109 6.22366 47.8555 5.34595 49.7103 5.34595C50.0176 5.34595 50.3652 5.40423 50.3652 5.40423Z" fill="var(--fill-0, #213142)"/>
<path id="Vector_5" d="M61.4159 16.2637C60.5348 16.7402 59.6057 17.1002 58.3165 17.1002C55.4879 17.1002 53.7908 15.5608 53.7908 12.5745V8.61796H51.7302V5.40196H53.7908V2.05225H57.4114V5.40196H60.5794V8.61796H57.4114V12.2111C57.4114 13.3871 57.9771 13.8637 58.9268 13.8637C59.4239 13.8637 59.7942 13.8122 60.2708 13.5414L61.4159 16.2637Z" fill="var(--fill-0, #213142)"/>
<path id="Vector_6" d="M74.9477 16.7661H71.3271V15.861C70.446 16.653 69.27 17.1056 67.7991 17.1056C64.7888 17.1056 62.2551 14.685 62.2551 11.0884C62.2551 7.49186 64.7888 5.07129 67.7991 5.07129C69.27 5.07129 70.446 5.52386 71.3271 6.31586V5.41072H74.9477V16.7696V16.7661ZM71.3271 11.085C71.3271 9.34329 70.014 8.14329 68.5431 8.14329C66.9591 8.14329 65.8037 9.34329 65.8037 11.085C65.8037 12.8267 66.9591 14.0267 68.5431 14.0267C70.014 14.0267 71.3271 12.8507 71.3271 11.085Z" fill="var(--fill-0, #213142)"/>
<path id="Vector_7" d="M89.1772 16.7659H85.5566V15.8608C84.6755 16.6528 83.4995 17.1054 82.0286 17.1054C79.0183 17.1054 76.4846 14.6848 76.4846 11.0882C76.4846 7.49166 79.0183 5.07109 82.0286 5.07109C83.4995 5.07109 84.6755 5.52366 85.5566 6.31566V0.476807H89.1772V16.7694V16.7659ZM85.5566 11.0848C85.5566 9.34309 84.2435 8.14309 82.7726 8.14309C81.1886 8.14309 80.0332 9.34309 80.0332 11.0848C80.0332 12.8265 81.1886 14.0265 82.7726 14.0265C84.2435 14.0265 85.5566 12.8505 85.5566 11.0848Z" fill="var(--fill-0, #213142)"/>
<path id="Vector_8" d="M110.246 9.65925V16.7632H106.649V10.4272C106.649 9.13811 105.813 8.32211 104.75 8.32211C103.416 8.32211 102.531 9.29582 102.531 11.1952V16.7598H98.9108V10.4238C98.9108 9.13468 98.0743 8.31868 96.9874 8.31868C95.6743 8.31868 94.8137 9.29239 94.8137 11.1918V16.7564H91.1931V5.39753H94.8137V6.43982C95.5817 5.57925 96.6925 5.05811 98.1634 5.05811C99.7474 5.05811 101.105 5.73696 101.873 6.98153C102.778 5.80553 104.136 5.05811 105.902 5.05811C108.322 5.05811 110.246 6.89239 110.246 9.65239V9.65925Z" fill="var(--fill-0, #213142)"/>
<path id="Vector_9" d="M116.038 2.05714C116.038 3.21257 115.157 4.06971 113.933 4.06971C112.709 4.06971 111.852 3.20914 111.852 2.05714C111.852 0.905143 112.712 0 113.933 0C115.154 0 116.038 0.949714 116.038 2.05714ZM112.123 16.7657V5.40686H115.743V16.7657H112.123Z" fill="var(--fill-0, #213142)"/>
<path id="Vector_10" d="M129.141 9.79586V16.7661H125.544V10.5673C125.544 9.23357 124.752 8.32843 123.597 8.32843C122.17 8.32843 121.245 9.30215 121.245 11.4964V16.7696H117.624V5.41072H121.245V6.49757C122.105 5.59243 123.305 5.07129 124.728 5.07129C127.375 5.07129 129.141 6.95015 129.141 9.79929V9.79586Z" fill="var(--fill-0, #213142)"/>
</g>
</svg>
